<svg xmlns="http://www.w3.org/2000/svg" viewBox="0 0 42.69 49.96"><defs><style>.cls-1,.cls-2,.cls-3{fill:none;stroke-linejoin:round;}.cls-1,.cls-2{stroke:#000;}.cls-2,.cls-3{stroke-linecap:round;}.cls-3{stroke:#c7a500;}</style></defs><g id="Layer_2" data-name="Layer 2"><g id="Layer_1-2" data-name="Layer 1"><path class="cls-1" d="M21.35,33.75c13.93-.46,13.14-13.49,13.14-13.49V.5H8.2V20.26s-.78,13,13.15,13.49h0"/><path class="cls-2" d="M7.8,3.55H.58S-.8,15.83,7.65,20.44"/><path class="cls-2" d="M34.89,3.55h7.22s1.38,12.28-7.06,16.89"/><polygon class="cls-3" points="21.35 7.49 24.02 12.22 28.99 13.04 25.68 17.3 26.07 22.03 21.35 20.45 16.63 22.03 17.02 17.3 13.71 13.04 18.67 12.22 21.35 7.49"/><rect class="cls-1" x="19.04" y="33.95" width="4.61" height="7.68"/><polygon class="cls-1" points="27.18 41.78 15.51 41.78 14.29 49.46 28.41 49.46 27.18 41.78"/></g></g></svg>