<svg xmlns="http://www.w3.org/2000/svg" viewBox="0 0 50.38 51"><defs><style>.cls-1,.cls-2{fill:none;stroke-linecap:round;stroke-linejoin:round;}.cls-1{stroke:#000;}.cls-2{stroke:#c7a500;}</style></defs><g id="Layer_2" data-name="Layer 2"><g id="Layer_1-2" data-name="Layer 1"><line class="cls-1" x1="0.5" y1="50.5" x2="12.18" y2="39.82"/><line class="cls-1" x1="28.92" y1="14.72" x2="43.02" y2="6.56"/><line class="cls-1" x1="16.83" y1="34.4" x2="23.18" y2="19.04"/><polyline class="cls-1" points="0.5 0.5 0.5 50.5 49.88 50.5"/><path class="cls-2" d="M49.88,5.49a3.75,3.75,0,1,0-3.75,3.76A3.75,3.75,0,0,0,49.88,5.49Z"/><path class="cls-2" d="M18,36.75a3.75,3.75,0,1,0-3.75,3.76A3.75,3.75,0,0,0,18,36.75Z"/><path class="cls-2" d="M29.48,16.29A3.75,3.75,0,1,0,25.73,20,3.75,3.75,0,0,0,29.48,16.29Z"/></g></g></svg>
