<svg xmlns="http://www.w3.org/2000/svg" viewBox="0 0 49.5 49.5"><defs><style>.cls-1,.cls-2{fill:none;}.cls-1{stroke:#c7a500;}.cls-2{stroke:#000;stroke-linejoin:round;}</style></defs><g id="Layer_2" data-name="Layer 2"><g id="Layer_1-2" data-name="Layer 1"><circle class="cls-1" cx="24.75" cy="24.5" r="10"/><path class="cls-2" d="M29.25.5h-9V7.09a17.94,17.94,0,0,0-4.79,2L10.79,4.42,4.42,10.79l4.74,4.74a17.51,17.51,0,0,0-1.88,4.72H.5v9H7.4a18,18,0,0,0,1.95,4.54L4.42,38.72l6.37,6.36,5-5a17.71,17.71,0,0,0,4.47,1.82V49h9V41.91a17.71,17.71,0,0,0,4.47-1.82l5,5,6.37-6.36-4.93-4.93a18,18,0,0,0,2-4.54H49v-9H42.22a17.51,17.51,0,0,0-1.88-4.72l4.74-4.74L38.72,4.42,34,9.1a17.94,17.94,0,0,0-4.79-2Z"/></g></g></svg>